<?xml version="1.0" encoding="UTF-8"?>
<svg version="1.1" xmlns="http://www.w3.org/2000/svg" width="1920" height="1920">
<path d="M0 0 C633.6 0 1267.2 0 1920 0 C1920 633.6 1920 1267.2 1920 1920 C1286.4 1920 652.8 1920 0 1920 C0 1286.4 0 652.8 0 0 Z " fill="#26272C" transform="translate(0,0)"/>
<path d="M0 0 C263.53263481 0 263.53263481 0 293.875 3.75 C294.55227142 3.83170441 295.22954285 3.91340881 295.92733765 3.99758911 C335.18133301 8.76169924 373.94719344 17.06249277 410.65234375 32.04296875 C412.22278926 32.683167 413.79844478 33.31072481 415.37890625 33.92578125 C425.61790976 37.91948567 435.50353488 42.67156409 445.30078125 47.640625 C446.89229798 48.44214138 448.49122961 49.22966579 450.10546875 49.984375 C455.48676384 52.51413846 460.23503796 55.81871405 465.14453125 59.16015625 C468.3598854 61.23188238 471.41689316 62.69705206 475 64 C475 64.66 475 65.32 475 66 C475.804375 66.37125 475.804375 66.37125 476.625 66.75 C481.49876926 69.31514172 485.89169383 72.63390911 490.34765625 75.8515625 C492.10393229 77.10713557 492.10393229 77.10713557 494.5 78.4375 C497.98094837 80.61309273 500.92495702 83.29291088 504 86 C505.74017733 87.47245774 507.48235794 88.94247192 509.2265625 90.41015625 C511.57770086 92.51789482 513.77504199 94.75923973 516 97 C517.1733474 98.15219534 518.34791077 99.3031532 519.5234375 100.453125 C534.32265661 115.00464249 534.32265661 115.00464249 538 121 C538 121.66 538 122.32 538 123 C538.56332031 123.21011719 539.12664063 123.42023438 539.70703125 123.63671875 C542.78082812 125.46424023 544.59762575 127.98339818 546.6875 130.8125 C547.33779175 131.67657471 547.33779175 131.67657471 548.0012207 132.55810547 C559.46662791 147.90786503 569.4574583 163.84711864 578 181 C578.47179688 181.92039062 578.94359375 182.84078125 579.4296875 183.7890625 C601.49856102 227.09177108 612.87211124 276.4884024 617.75 324.5625 C617.86553223 325.70074219 617.98106445 326.83898437 618.10009766 328.01171875 C619.85778499 346.74615851 620.20532583 365.50732857 620.1875 384.3125 C620.18709213 385.94467972 620.18709213 385.94467972 620.18667603 387.60983276 C620.12079863 445.24096201 612.42809083 502.32700375 592.875 556.75 C592.55023682 557.65548584 592.22547363 558.56097168 591.89086914 559.49389648 C589.91479089 564.87101771 587.61290613 569.9037068 585 575 C584.71125 575.928125 584.4225 576.85625 584.125 577.8125 C582.67545255 581.91955111 580.58319503 585.53461875 578.4375 589.31640625 C577.08671422 591.83811774 576.04236176 594.33989279 575 597 C574.14273021 598.77948425 573.2677278 600.55053724 572.375 602.3125 C571.70597656 603.63701172 571.70597656 603.63701172 571.0234375 604.98828125 C570.68570313 605.65214844 570.34796875 606.31601563 570 607 C569.34 607 568.68 607 568 607 C567.77699219 607.81984375 567.55398438 608.6396875 567.32421875 609.484375 C565.68508075 613.83606882 563.38126917 617.39469412 560.8125 621.25 C560.06613281 622.38369019 560.06613281 622.38369019 559.3046875 623.5402832 C557.8781834 625.69926011 556.4413587 627.85092095 555 630 C554.37480469 630.93714844 553.74960938 631.87429688 553.10546875 632.83984375 C545.92019698 643.346774 537.9217503 653.22775321 529.265625 662.55078125 C527.29242483 664.68387867 525.38705297 666.85358987 523.5 669.0625 C516.05475984 677.58625626 507.87240654 684.99475121 499 692 C498.10925781 692.74507812 497.21851563 693.49015625 496.30078125 694.2578125 C494 696 494 696 492 696 C491.67 696.99 491.34 697.98 491 699 C489.55712891 700.3503418 489.55712891 700.3503418 487.7265625 701.69921875 C487.0665625 702.18583984 486.4065625 702.67246094 485.7265625 703.17382812 C485.03304688 703.67333984 484.33953125 704.17285156 483.625 704.6875 C482.93921875 705.19861328 482.2534375 705.70972656 481.546875 706.23632812 C476.38124791 710 476.38124791 710 473 710 C473 710.66 473 711.32 473 712 C471.02 712.66 469.04 713.32 467 714 C467 714.66 467 715.32 467 716 C465.02 716.66 463.04 717.32 461 718 C461 718.66 461 719.32 461 720 C460.278125 720.268125 459.55625 720.53625 458.8125 720.8125 C455.95320276 721.94032684 455.95320276 721.94032684 453.3125 723.625 C451 725 451 725 449 725 C449 725.66 449 726.32 449 727 C447.865625 727.391875 446.73125 727.78375 445.5625 728.1875 C439.89409958 730.30812498 434.72714927 733.27594012 429.62109375 736.50390625 C426.7365183 738.15039268 423.86566873 739.28982009 420.75 740.4375 C416.93328012 741.87251814 413.15398109 743.32180835 409.4375 745 C394.00743716 751.96199889 394.00743716 751.96199889 386 753 C384.56028169 753.56104596 383.13445533 754.15819935 381.71875 754.77734375 C375.03294071 757.5089119 368.11682725 759.24195649 361.125 761 C360.43593567 761.17463776 359.74687134 761.34927551 359.03692627 761.52920532 C243.73381409 790.70226183 112.58089403 777 0 777 C0 520.59 0 264.18 0 0 Z " fill="#FEFEFE" transform="translate(477,571)"/>
<path d="M0 0 C30.03 0 60.06 0 91 0 C91.495 0.495 91.495 0.495 92 1 C94.1612086 1.26521854 96.32996702 1.46921603 98.5 1.6484375 C99.86681088 1.76559776 101.23359033 1.88312515 102.6003418 2.00097656 C103.31862152 2.06160278 104.03690125 2.122229 104.77694702 2.18469238 C116.96138149 3.22775825 129.04704628 4.30537612 141 7 C142.62615234 7.36399902 142.62615234 7.36399902 144.28515625 7.73535156 C148.09019433 8.59784031 151.88957874 9.48170939 155.6875 10.375 C156.88785889 10.65504883 158.08821777 10.93509766 159.32495117 11.22363281 C166.67366394 13.00275774 173.73179707 15.20008334 180.81811523 17.83837891 C183.97863199 18.99219911 187.15931253 20.01190117 190.375 21 C194.59342193 22.39690187 198.02209307 24.03774531 201.6875 26.51953125 C204.79780588 28.51075748 208.04785672 30.21721864 211.3125 31.9375 C212.28002197 32.44845215 212.28002197 32.44845215 213.26708984 32.96972656 C214.55647886 33.65053433 215.84602807 34.33103878 217.13574219 35.01123047 C221.44699534 37.29784326 225.7219793 39.65198033 230 42 C230 42.66 230 43.32 230 44 C230.69996094 44.23976563 231.39992188 44.47953125 232.12109375 44.7265625 C235.4664732 46.20633686 238.20465806 48.13087478 241.0625 50.375 C241.93769287 51.06130493 241.93769287 51.06130493 242.83056641 51.76147461 C248.86882145 56.65368716 254.37350965 62.0820245 259.875 67.5625 C261.22283569 68.90223877 261.22283569 68.90223877 262.59790039 70.26904297 C269 76.74249072 269 76.74249072 269 79 C269.639375 79.2475 270.27875 79.495 270.9375 79.75 C273 81 273 81 273.75 83.125 C273.8325 83.74375 273.915 84.3625 274 85 C274.66 85 275.32 85 276 85 C280.05739602 89.46313563 283.15954001 94.70685612 286 100 C286.59425781 101.07507813 287.18851563 102.15015625 287.80078125 103.2578125 C293 112.72935885 293 112.72935885 293 115 C293.66 115 294.32 115 295 115 C295.25394531 115.74765625 295.50789063 116.4953125 295.76953125 117.265625 C296.11371094 118.25046875 296.45789063 119.2353125 296.8125 120.25 C297.14894531 121.22453125 297.48539063 122.1990625 297.83203125 123.203125 C298.84254083 125.96631494 298.84254083 125.96631494 300.45703125 127.875 C302.65020282 130.8954692 303.69208342 134.24741478 304.875 137.75 C305.26244385 138.87402222 305.26244385 138.87402222 305.65771484 140.02075195 C308.26002286 147.63358121 310.67027541 155.30006278 313 163 C313.34933594 164.10214844 313.69867187 165.20429687 314.05859375 166.33984375 C317.0654046 176.179252 318.81801527 186.17972777 320.53857422 196.31054688 C320.95835974 198.75729679 321.39849333 201.1991302 321.84765625 203.640625 C325.7676152 225.29428949 326.35183212 246.91997738 326.31567383 268.86401367 C326.31106399 271.89704302 326.31790131 274.92966924 326.33618164 277.96264648 C326.49414957 304.46863506 325.28676568 330.71116159 320.25 356.8125 C320.12471924 357.48048615 319.99943848 358.14847229 319.87036133 358.83670044 C316.64703273 375.99138578 312.13770485 392.77711814 306.75 409.375 C306.51603516 410.10066162 306.28207031 410.82632324 306.04101562 411.57397461 C304.79804729 415.24277906 303.33893249 417.95114763 301 421 C300.33506649 422.87538391 299.73512373 424.77456779 299.1875 426.6875 C297.5784316 431.77463164 295.49913764 435.64597486 292.39453125 439.953125 C290.43779412 442.82519855 289.23992206 445.76242574 288 449 C287.34 449 286.68 449 286 449 C285.61134766 450.30904297 285.61134766 450.30904297 285.21484375 451.64453125 C283.99318239 455.01883063 282.51100737 457.68302735 280.5625 460.6875 C279.96566406 461.61949219 279.36882812 462.55148437 278.75390625 463.51171875 C277.26874379 465.61873097 275.838449 467.22314851 274 469 C272.71760173 470.5739811 271.4484302 472.15876877 270.1875 473.75 C266.24491162 478.59596379 262.12643252 483.23551498 257.875 487.8125 C257.30160889 488.43415039 256.72821777 489.05580078 256.13745117 489.69628906 C252.37057213 493.71788344 248.49962998 497.78840945 244 501 C243.34 501 242.68 501 242 501 C242 501.66 242 502.32 242 503 C240.37939453 504.42041016 240.37939453 504.42041016 238.1328125 506.0390625 C237.32972656 506.61914062 236.52664063 507.19921875 235.69921875 507.796875 C234.84972656 508.40015625 234.00023437 509.0034375 233.125 509.625 C231.86236328 510.54152344 231.86236328 510.54152344 230.57421875 511.4765625 C224.26361956 516 224.26361956 516 222 516 C222 516.66 222 517.32 222 518 C217.80467459 521.31209901 213.45045779 523.05471912 208.48046875 524.94140625 C206.21585698 525.90787836 204.44144889 526.96548089 202.4375 528.375 C197.8068628 531.446341 192.66782965 533.0339062 187.42944336 534.76904297 C183.69867088 536.01134063 180.11060029 537.36231107 176.53515625 539.00390625 C172.07396981 541.0257932 167.58287819 542.5366148 162.875 543.875 C161.99682617 544.12475586 161.11865234 544.37451172 160.21386719 544.63183594 C107.40641896 559.06334942 55.28067928 556 0 556 C0 372.52 0 189.04 0 0 Z " fill="#292A2E" transform="translate(622,681)"/>
<path d="M0 0 C4.92387608 0.51830275 8.69773084 1.55334983 13.125 3.75 C20.91072412 7.47862501 28.89368376 10.48785771 36.98828125 13.46875 C48.83058725 17.84543737 48.83058725 17.84543737 54.4375 20.5 C59.72057884 22.98241054 65.150382 24.86542808 70.66064453 26.76733398 C76.88736687 28.92732804 82.94816789 31.38957034 89 34 C96.43413456 37.18320661 103.90819849 40.06380477 111.5390625 42.7421875 C115.78462222 44.28515615 119.93595988 46.00708364 124.0859375 47.7890625 C126.21174596 48.67244135 128.36494724 49.49071665 130.53125 50.26953125 C137.75215501 52.95153287 144.65515353 56.4322537 151.62109375 59.70507812 C152.73871094 60.22650391 153.85632812 60.74792969 155.0078125 61.28515625 C156.01473145 61.75832275 157.02165039 62.23148926 158.05908203 62.71899414 C160.97988111 64.04589024 160.97988111 64.04589024 164.03393555 64.99511719 C167.0438197 66.01484582 169.65711191 67.28083674 172.44921875 68.79296875 C173.96999023 69.61571289 173.96999023 69.61571289 175.52148438 70.45507812 C177.08866211 71.31262695 177.08866211 71.31262695 178.6875 72.1875 C179.71294922 72.73986328 180.73839844 73.29222656 181.79492188 73.86132812 C187.88337117 77.17285993 193.76200691 80.68154303 199.53833008 84.51293945 C201.96488232 85.9787859 204.34234367 87.02680302 207 88 C207 88.66 207 89.32 207 90 C208.98 90.66 210.96 91.32 213 92 C213 92.66 213 93.32 213 94 C213.86625 94.0928125 213.86625 94.0928125 214.75 94.1875 C217.89829784 95.32438533 218.98091594 97.36907229 221 100 C223.34798484 102.04696114 225.60386621 103.77516731 228.3125 105.3125 C234.1982672 109.00821429 239.16525253 114.04438385 244 119 C244.60585937 119.57234375 245.21171875 120.1446875 245.8359375 120.734375 C250.96118745 125.64361824 255.36147595 130.88273144 259 137 C259 137.66 259 138.32 259 139 C259.61875 139.226875 260.2375 139.45375 260.875 139.6875 C263.62260139 141.38454792 263.93210179 143.02514071 265 146 C265.66 146.33 266.32 146.66 267 147 C267.2475 147.70125 267.495 148.4025 267.75 149.125 C268.93773914 151.85680003 269.95465978 153.17299092 271.9375 155.3125 C274.52431817 158.22267045 275.8770386 160.83413102 277.08984375 164.57421875 C278.30315954 167.80799172 279.91040811 170.81545414 281.5 173.875 C284.36732737 179.49378076 286.42001026 184.9045659 288 191 C288.38977847 192.34085167 288.78335691 193.68060163 289.1796875 195.01953125 C294.09319112 211.799679 297.1175343 228.59644578 297.203125 246.1171875 C297.20882507 247.05442657 297.21452515 247.99166565 297.22039795 248.95730591 C297.22978288 250.93213802 297.23635578 252.90698533 297.24023438 254.88183594 C297.2498629 257.83297766 297.28091764 260.78339827 297.3125 263.734375 C297.40713295 280.50415967 295.61672145 296.62039926 291.125 312.8125 C290.86960449 313.76390869 290.61420898 314.71531738 290.35107422 315.69555664 C288.20290003 323.56931337 285.74414898 331.31395442 283 339 C282.34 339 281.68 339 281 339 C280.74476563 339.99773437 280.48953125 340.99546875 280.2265625 342.0234375 C279.04757056 346.13442339 277.31483906 349.82409708 275.375 353.625 C275.02816162 354.31287598 274.68132324 355.00075195 274.32397461 355.70947266 C271.35607837 361.50110826 268.04955033 367.0294764 264.56640625 372.5234375 C263.01920289 374.8781334 263.01920289 374.8781334 262 377 C261.34 377 260.68 377 260 377 C258.91887052 379.01810837 258.048936 380.739008 257.625 383 C256.75455647 385.78541931 255.19643598 387.13635735 253 389 C252.34 389 251.68 389 251 389 C250.73952881 389.74491699 250.47905762 390.48983398 250.21069336 391.25732422 C248.97575677 394.05492003 247.73058271 395.68924248 245.62890625 397.8828125 C244.97212891 398.57503906 244.31535156 399.26726562 243.63867188 399.98046875 C242.95353516 400.68816406 242.26839844 401.39585937 241.5625 402.125 C240.88123047 402.84042969 240.19996094 403.55585937 239.49804688 404.29296875 C237.67426306 406.20427989 235.84373349 408.10793693 234 410 C233.2109729 410.85440674 233.2109729 410.85440674 232.40600586 411.72607422 C231 413 231 413 229 413 C229 413.66 229 414.32 229 415 C223.52380952 420 223.52380952 420 221 420 C221 420.66 221 421.32 221 422 C220.38125 422.0825 219.7625 422.165 219.125 422.25 C216.84696322 422.77341441 216.84696322 422.77341441 216.125 424.8125 C214.48233306 428.0065746 212.04916382 429.2213211 209 431 C208.34 431 207.68 431 207 431 C207 431.66 207 432.32 207 433 C205.3203125 434.2890625 205.3203125 434.2890625 203.125 435.625 C202.40570312 436.07101562 201.68640625 436.51703125 200.9453125 436.9765625 C199 438 199 438 197 438 C197 438.66 197 439.32 197 440 C192.67334316 442.34587139 188.33816561 444.67551266 184 447 C182.92371338 447.57814453 182.92371338 447.57814453 181.82568359 448.16796875 C165.65073845 456.83950733 149.48502813 465.2829383 132 471 C131.34298096 471.22486084 130.68596191 471.44972168 130.0090332 471.68139648 C42.15591347 501.61369753 -68.14872645 500.12157314 -154 464 C-154.73347656 463.62746094 -155.46695313 463.25492188 -156.22265625 462.87109375 C-158.75637298 461.62929412 -161.35283447 461.15255766 -164.09765625 460.5625 C-166 460 -166 460 -169 458 C-167.792843 454.37852901 -167.123544 454.25828784 -163.875 452.5 C-152.88001244 446.16764327 -142.7338509 438.1066997 -133 430 C-132.48598633 429.5762207 -131.97197266 429.15244141 -131.44238281 428.71582031 C-116.77194653 416.56274585 -102.26775109 403.24774295 -90.65625 388.09375 C-89 386 -89 386 -86.96875 384.03125 C-84.83454989 381.8292975 -83.54048456 379.64902184 -82 377 C-80.31218211 374.53275556 -78.56219859 372.11111959 -76.8125 369.6875 C-76.34908203 369.04232422 -75.88566406 368.39714844 -75.40820312 367.73242188 C-74.27386494 366.15370378 -73.13717138 364.57667852 -72 363 C-66.81514187 363.59014645 -61.72359858 364.39371327 -56.59619141 365.35839844 C-7.58405112 374.45414382 50.68199099 377.00816661 96 353 C99.06726884 351.55821664 102.0435647 350.2013548 105.375 349.5 C105.91125 349.335 106.4475 349.17 107 349 C107.33 348.01 107.66 347.02 108 346 C109.63320137 344.94623007 111.30641093 343.95369484 113 343 C124.37377921 334.86047081 136.2811708 323.91355062 140 310 C140.66 310 141.32 310 142 310 C143.0473908 306.01100099 144.02558815 302.00737846 145 298 C145.28617188 296.93652344 145.57234375 295.87304688 145.8671875 294.77734375 C151.06214558 273.23063667 149.04402472 251.3563679 139.953125 231.2578125 C139 229 139 229 139 227 C138.34 227 137.68 227 137 227 C136.896875 226.360625 136.79375 225.72125 136.6875 225.0625 C136.460625 224.381875 136.23375 223.70125 136 223 C135.01 222.67 134.02 222.34 133 222 C132.505 221.030625 132.01 220.06125 131.5 219.0625 C126.73107223 210.26247856 117.30346606 204.20521031 109.06469727 198.86767578 C107.67845685 197.95783051 106.33437466 196.98433997 105 196 C105 195.34 105 194.68 105 194 C104.05125 193.690625 103.1025 193.38125 102.125 193.0625 C99 192 99 192 97 191 C97 190.34 97 189.68 97 189 C95.7625 188.62875 95.7625 188.62875 94.5 188.25 C91.9005438 187.32162278 89.67763771 186.37829264 87.25 185.125 C82.63234163 182.74457921 77.84390343 180.86609394 73 179 C73 178.34 73 177.68 73 177 C72.030625 176.9175 71.06125 176.835 70.0625 176.75 C63.28767843 175.78021707 57.19947132 172.18928984 51.21484375 169.02734375 C47.88558885 167.48308619 44.44380756 166.26350427 41 165 C39.68980344 164.51252625 38.37990143 164.02426003 37.0703125 163.53515625 C36.42513672 163.29458496 35.77996094 163.05401367 35.11523438 162.80615234 C15.86331864 155.61266175 15.86331864 155.61266175 8.984375 151.9296875 C6.3937152 150.71595319 3.72277875 149.86913559 1 149 C1.22786458 144.44270833 1.45572917 139.88541667 1.68359375 135.328125 C1.73016113 134.36422852 1.77672852 133.40033203 1.82470703 132.40722656 C1.95356456 129.90258078 2.09613778 127.40058663 2.24951172 124.89746094 C3.1139432 110.20654371 3.23714166 95.52040834 3.24838257 80.80701828 C3.24946745 79.42728994 3.25120456 78.04756197 3.25357056 76.66783524 C3.29128078 54.13265642 2.5430233 31.78684526 0.27539062 9.35327148 C0.01777212 6.21640072 -0.0504964 3.14550471 0 0 Z " fill="#FDFDFE" transform="translate(1145,871)"/>
<path d="M0 0 C3.19363425 0.01072262 6.38670482 0.00002729 9.58032227 -0.01269531 C27.67932542 -0.02556411 45.54846986 1.30385435 63.44946289 4.01074219 C65.12020874 4.26235107 65.12020874 4.26235107 66.82470703 4.51904297 C102.46666773 10.10846964 144.40927947 19.74127404 175.53930664 38.64355469 C178.89796871 40.63851322 182.37481099 42.30598421 185.88696289 44.01074219 C191.74287294 46.8940414 197.28879705 50.00970481 202.74633789 53.60449219 C209.70156668 58.18371114 216.95604146 62.27248556 224.26196289 66.26074219 C224.26196289 66.92074219 224.26196289 67.58074219 224.26196289 68.26074219 C224.77758789 68.48761719 225.29321289 68.71449219 225.82446289 68.94824219 C228.53107145 70.4056468 230.91573318 72.1181731 233.38305664 73.94433594 C235.28969979 75.32833119 235.28969979 75.32833119 237.57836914 76.54980469 C241.01876621 78.74324561 243.81520573 81.39164401 246.76196289 84.19824219 C250.48539499 87.71865653 254.20439508 91.11915517 258.26196289 94.26074219 C257.9188759 97.07214948 257.69927714 98.79442241 255.73071289 100.89355469 C255.08102539 101.38597656 254.43133789 101.87839844 253.76196289 102.38574219 C249.42765226 105.94882317 246.11540768 109.96507335 242.63305664 114.34667969 C239.41935532 118.29630273 235.98403456 122.01953765 232.52368164 125.75292969 C230.20791415 128.25477994 230.20791415 128.25477994 228.09399414 131.08105469 C227.48942383 131.80035156 226.88485352 132.51964844 226.26196289 133.26074219 C225.60196289 133.26074219 224.94196289 133.26074219 224.26196289 133.26074219 C224.07633789 133.94136719 223.89071289 134.62199219 223.69946289 135.32324219 C222.02940375 138.73597173 219.98366233 140.6403498 217.26196289 143.23730469 C213.58803342 146.95428802 210.47662965 151.14785972 207.26196289 155.26074219 C205.64202057 157.32657773 204.01417807 159.30238405 202.26196289 161.26074219 C201.60196289 161.26074219 200.94196289 161.26074219 200.26196289 161.26074219 C200.04282227 161.78667969 199.82368164 162.31261719 199.59790039 162.85449219 C197.76204963 166.16117076 195.34445895 168.90875334 192.88696289 171.76074219 C192.40485352 172.32921875 191.92274414 172.89769531 191.42602539 173.48339844 C186.04277635 179.7882363 186.04277635 179.7882363 183.26196289 182.26074219 C179.13295644 182.36940025 177.05000316 180.40548852 174.08618164 177.72949219 C171.05165267 175.286274 167.63206743 173.48975343 164.23852539 171.59277344 C163.58625977 171.15320313 162.93399414 170.71363281 162.26196289 170.26074219 C162.26196289 169.60074219 162.26196289 168.94074219 162.26196289 168.26074219 C161.56071289 168.17824219 160.85946289 168.09574219 160.13696289 168.01074219 C156.56756704 167.07959544 154.27969148 165.3731522 151.26196289 163.26074219 C148.95017894 161.88579004 146.60912068 160.57515055 144.26196289 159.26074219 C144.26196289 158.60074219 144.26196289 157.94074219 144.26196289 157.26074219 C143.02446289 156.88949219 143.02446289 156.88949219 141.76196289 156.51074219 C136.89855387 154.77381039 132.3487764 152.57929388 127.98071289 149.81933594 C124.71876589 147.94934046 121.32581388 146.60123948 117.82446289 145.26074219 C114.19983409 143.86469659 110.63679466 142.44981244 107.16430664 140.69824219 C104.23358804 139.24668843 101.36994535 138.27165788 98.26196289 137.26074219 C96.29664389 136.58764907 94.33181759 135.91311602 92.36743164 135.23730469 C73.5720274 128.80201806 73.5720274 128.80201806 54.26196289 124.26074219 C52.88089355 123.99221436 52.88089355 123.99221436 51.47192383 123.71826172 C12.3095231 116.31675536 -29.15503571 118.17949991 -66.73242188 131.70996094 C-68.73803711 132.26074219 -68.73803711 132.26074219 -72.73803711 132.26074219 C-74.11694336 130.68652344 -74.11694336 130.68652344 -75.30053711 128.57324219 C-75.69370117 127.88875 -76.08686523 127.20425781 -76.49194336 126.49902344 C-76.9031543 125.76039063 -77.31436523 125.02175781 -77.73803711 124.26074219 C-81.00394155 118.63111685 -84.87740563 113.49175049 -88.73803711 108.26074219 C-89.26913086 107.53113281 -89.80022461 106.80152344 -90.34741211 106.04980469 C-93.2596859 102.08848604 -96.34065069 98.35313091 -99.60131836 94.67480469 C-102.43756438 91.47041705 -105.24936997 88.24581071 -108.05053711 85.01074219 C-108.57856934 84.40794434 -109.10660156 83.80514648 -109.65063477 83.18408203 C-113.52908324 78.69489368 -113.52908324 78.69489368 -114.84350586 75.96386719 C-116.04884731 73.66898128 -117.41178438 73.33988831 -119.73803711 72.26074219 C-121.31711114 70.95038777 -122.85553876 69.59034571 -124.36303711 68.19824219 C-125.24217773 67.39386719 -126.12131836 66.58949219 -127.02709961 65.76074219 C-127.92170898 64.93574219 -128.81631836 64.11074219 -129.73803711 63.26074219 C-135.47497826 58.00335959 -141.28619747 52.9421687 -147.39819336 48.12402344 C-150.58619638 45.58532988 -153.66302606 42.93466484 -156.73803711 40.26074219 C-150.88497017 33.38975056 -141.94624408 30.38466687 -133.73803711 27.26074219 C-132.07011723 26.59721712 -130.40344261 25.93055316 -128.73803711 25.26074219 C-127.90788086 24.92945313 -127.07772461 24.59816406 -126.22241211 24.25683594 C-124.60564727 23.60860475 -122.99093522 22.95522205 -121.37866211 22.29589844 C-118.83974344 21.26290702 -116.29107677 20.25831195 -113.73803711 19.26074219 C-112.81635742 18.89207031 -111.89467773 18.52339844 -110.94506836 18.14355469 C-93.6928287 11.58556048 -75.5266364 7.5081603 -57.36303711 4.44824219 C-56.21383789 4.25359375 -55.06463867 4.05894531 -53.88061523 3.85839844 C-35.95195769 0.99947719 -18.14540238 -0.0721432 0 0 Z " fill="#FDFDFD" transform="translate(1157.738037109375,556.7392578125)"/>
<path d="M0 0 C35.2541136 -0.04573804 70.50822121 -0.08099915 105.76235821 -0.10213066 C109.92067375 -0.10463219 114.07898923 -0.10722082 118.23730469 -0.10986328 C119.06518036 -0.1103879 119.89305603 -0.11091252 120.74601884 -0.11145304 C134.16595244 -0.1201651 147.58586897 -0.13593945 161.00579242 -0.15430559 C174.76709203 -0.17298241 188.52838267 -0.18411202 202.28969443 -0.18817699 C210.7870187 -0.19092667 219.28429475 -0.19962361 227.78160419 -0.21583293 C233.60175133 -0.22637247 239.42187341 -0.22960754 245.24202941 -0.22700275 C248.60427159 -0.22571671 251.96636083 -0.22882222 255.32859993 -0.23841095 C258.96696862 -0.24828299 262.60512674 -0.24599733 266.24349976 -0.24050903 C267.31546675 -0.24633472 268.38743375 -0.2521604 269.49188459 -0.25816262 C270.46076726 -0.25418052 271.42964993 -0.25019842 272.42789268 -0.24609566 C273.6889439 -0.24723482 273.6889439 -0.24723482 274.9754709 -0.24839699 C277 0 277 0 279 2 C281.71076123 2.55876991 281.71076123 2.55876991 284.8828125 2.8515625 C286.04941406 2.98046875 287.21601562 3.109375 288.41796875 3.2421875 C290.25294922 3.43167969 290.25294922 3.43167969 292.125 3.625 C293.35605469 3.7590625 294.58710937 3.893125 295.85546875 4.03125 C298.90289344 4.36197826 301.95096329 4.68453881 305 5 C305 5.33 305 5.66 305 6 C295.70417787 6.23366547 286.56720995 5.13295123 277.33789062 4.15429688 C258.3207724 2.21184085 239.34396561 1.84351348 220.23925781 1.79467773 C217.82254377 1.7850733 215.40583131 1.77506183 212.98912048 1.76467896 C207.16316344 1.74066531 201.33720351 1.72082422 195.51122472 1.70292621 C188.71976083 1.68182921 181.92832045 1.65543024 175.13687655 1.62875474 C163.02990211 1.58133825 150.92291675 1.53800561 138.81591797 1.49731445 C127.06949009 1.45782625 115.32307183 1.41636915 103.57666016 1.37231445 C102.85010071 1.36959018 102.12354126 1.36686591 101.37496486 1.36405908 C97.72927997 1.35037742 94.08359523 1.33665758 90.43791056 1.32291877 C60.2919605 1.20936261 30.14598969 1.10253422 0 1 C0 0.67 0 0.34 0 0 Z " fill="#616266" transform="translate(477,570)"/>
<path d="M0 0 C21.12 0 42.24 0 64 0 C64 0.33 64 0.66 64 1 C70.6 1.33 77.2 1.66 84 2 C84 2.33 84 2.66 84 3 C56.28 3 28.56 3 0 3 C0 2.01 0 1.02 0 0 Z " fill="#202124" transform="translate(623,1233)"/>
<path d="M0 0 C0.33 0 0.66 0 1 0 C1 28.71 1 57.42 1 87 C0.67 87 0.34 87 0 87 C-1.1397301 80.01915314 -1.08320922 73.15228315 -1.01831055 66.09075928 C-0.91553053 54.3549949 -1.07231423 42.67226891 -1.64233398 30.94726562 C-1.99566488 23.62251805 -2.11621464 16.33443495 -2 9 C-1.34 9 -0.68 9 0 9 C0 6.03 0 3.06 0 0 Z " fill="#2C2D31" transform="translate(475,912)"/>
<path d="M0 0 C11.69998437 -0.04626739 23.3999471 -0.08184065 35.1000042 -0.10362434 C40.5323598 -0.11407752 45.96465298 -0.12826461 51.39697266 -0.15087891 C56.63594301 -0.1725527 61.87485319 -0.18455706 67.1138649 -0.18975449 C69.11622185 -0.19346009 71.11857538 -0.20069583 73.12090683 -0.21146011 C75.91775473 -0.22590247 78.7143515 -0.227981 81.51123047 -0.22705078 C82.34560638 -0.23424133 83.1799823 -0.24143188 84.03964233 -0.24884033 C89.77189568 -0.22810432 89.77189568 -0.22810432 92 2 C94.71076123 2.55876991 94.71076123 2.55876991 97.8828125 2.8515625 C99.04941406 2.98046875 100.21601562 3.109375 101.41796875 3.2421875 C102.64128906 3.36851562 103.86460937 3.49484375 105.125 3.625 C106.35605469 3.7590625 107.58710937 3.893125 108.85546875 4.03125 C111.90289344 4.36197826 114.95096329 4.68453881 118 5 C118 5.33 118 5.66 118 6 C108.70417787 6.23366547 99.56720995 5.13295123 90.33789062 4.15429688 C69.51663884 2.02756214 48.66496787 1.7533387 27.75 1.4375 C25.04686374 1.39456984 22.34374442 1.35061678 19.640625 1.30664062 C13.09380212 1.20089876 6.54692939 1.09891621 0 1 C0 0.67 0 0.34 0 0 Z " fill="#606165" transform="translate(664,570)"/>
<path d="M0 0 C16.5 0 33 0 50 0 C50 0.99 50 1.98 50 3 C49.09370346 3.0154612 49.09370346 3.0154612 48.1690979 3.03123474 C41.84164097 3.13999081 35.51430681 3.25452605 29.18701172 3.37231445 C26.83026719 3.41544336 24.47349583 3.45713246 22.11669922 3.49731445 C18.7157383 3.55555501 15.31490972 3.61909034 11.9140625 3.68359375 C10.35094833 3.70866249 10.35094833 3.70866249 8.7562561 3.73423767 C3.16395966 3.84574578 -2.34235785 4.15094497 -7.90100098 4.78283691 C-10.64904083 5.06714996 -13.36409146 5.09789626 -16.125 5.0625 C-17.05570313 5.05347656 -17.98640625 5.04445313 -18.9453125 5.03515625 C-19.62335938 5.02355469 -20.30140625 5.01195312 -21 5 C-21 4.67 -21 4.34 -21 4 C-20.39937744 3.9498877 -19.79875488 3.89977539 -19.17993164 3.84814453 C-16.47318501 3.61683453 -13.76793878 3.37111595 -11.0625 3.125 C-10.11697266 3.04636719 -9.17144531 2.96773437 -8.19726562 2.88671875 C-7.29814453 2.80292969 -6.39902344 2.71914063 -5.47265625 2.6328125 C-4.22367554 2.52283936 -4.22367554 2.52283936 -2.94946289 2.41064453 C-2.30614014 2.27513184 -1.66281738 2.13961914 -1 2 C-0.67 1.34 -0.34 0.68 0 0 Z " fill="#47484D" transform="translate(1136,554)"/>
<path d="M0 0 C9.24 0 18.48 0 28 0 C28 0.99 28 1.98 28 3 C26.865625 2.979375 25.73125 2.95875 24.5625 2.9375 C21.18424326 2.58422523 21.18424326 2.58422523 20 4 C15.89685521 4.17460191 11.84565581 3.98133182 7.75 3.6875 C6.91984375 3.62949219 6.0896875 3.57148437 5.234375 3.51171875 C3 3 3 3 0 0 Z " fill="#19191B" transform="translate(1132,1363)"/>
<path d="M0 0 C1.31677734 -0.02126953 1.31677734 -0.02126953 2.66015625 -0.04296875 C4.9375 0.1875 4.9375 0.1875 6.9375 2.1875 C9.64826123 2.74626991 9.64826123 2.74626991 12.8203125 3.0390625 C13.98691406 3.16796875 15.15351562 3.296875 16.35546875 3.4296875 C18.19044922 3.61917969 18.19044922 3.61917969 20.0625 3.8125 C21.29355469 3.9465625 22.52460937 4.080625 23.79296875 4.21875 C26.84039344 4.54947826 29.88846329 4.87203881 32.9375 5.1875 C32.9375 5.5175 32.9375 5.8475 32.9375 6.1875 C25.25908955 6.3760324 17.70236578 5.75155629 10.06884766 5.015625 C7.9151843 4.81037323 5.76050796 4.61988105 3.60546875 4.4296875 C2.23689431 4.30037417 0.86840103 4.17019817 -0.5 4.0390625 C-2.35431641 3.86624756 -2.35431641 3.86624756 -4.24609375 3.68994141 C-5.17550781 3.52413574 -6.10492187 3.35833008 -7.0625 3.1875 C-7.3925 2.5275 -7.7225 1.8675 -8.0625 1.1875 C-5.12020079 0.2067336 -3.0716216 0.02261872 0 0 Z " fill="#525357" transform="translate(749.0625,569.8125)"/>
<path d="M0 0 C1.32 0.66 2.64 1.32 4 2 C3.67 2.33 3.34 2.66 3 3 C3.71285156 3.04898438 4.42570312 3.09796875 5.16015625 3.1484375 C10.70508491 3.58128523 15.72086449 4.24028816 21 6 C21 6.33 21 6.66 21 7 C8.64119082 6.2684817 -3.67495512 5.16038178 -16 4 C-16 3.67 -16 3.34 -16 3 C-13.70952777 2.63818911 -11.41757055 2.28576776 -9.125 1.9375 C-7.84882812 1.74027344 -6.57265625 1.54304687 -5.2578125 1.33984375 C-2 1 -2 1 0 2 C0 1.34 0 0.68 0 0 Z " fill="#404145" transform="translate(1202,554)"/>
<path d="M0 0 C7.59 0 15.18 0 23 0 C17.542064 3.638624 8.47966309 4.01169461 2 3 C1.34 2.01 0.68 1.02 0 0 Z " fill="#1D1E21" transform="translate(716,1348)"/>
<path d="M0 0 C5.28 0 10.56 0 16 0 C15.67 0.99 15.34 1.98 15 3 C10.05 3 5.1 3 0 3 C0 2.01 0 1.02 0 0 Z " fill="#333438" transform="translate(1776,1)"/>
<path d="M0 0 C8.07094823 -0.10466648 15.9874678 -0.03387512 24 1 C24 1.33 24 1.66 24 2 C21.12546578 2.22297226 18.2513818 2.42878171 15.375 2.625 C14.56675781 2.68945312 13.75851562 2.75390625 12.92578125 2.8203125 C8.12222508 3.13273892 4.52932939 2.92020113 0 1 C0 0.67 0 0.34 0 0 Z " fill="#47474B" transform="translate(714,683)"/>
<path d="M0 0 C5.61 0 11.22 0 17 0 C16.01 1.485 16.01 1.485 15 3 C10.4252088 3.29998631 6.46855147 3.05142388 2 2 C1.34 2 0.68 2 0 2 C0 1.34 0 0.68 0 0 Z " fill="#2F3034" transform="translate(697,683)"/>
<path d="M0 0 C0 1.65 0 3.3 0 5 C0.66 5 1.32 5 2 5 C2.33 5.99 2.66 6.98 3 8 C-1.10958767 6.54955729 -4.43258745 4.48889248 -8 2 C-4.77208445 -0.1519437 -3.71599191 -0.20086443 0 0 Z " fill="#5B5B60" transform="translate(944,625)"/>
<path d="M0 0 C0.33 0.66 0.66 1.32 1 2 C3.64 2 6.28 2 9 2 C5.73386305 3.91302307 3.00554752 4.35674661 -0.75 4.625 C-1.73484375 4.69976563 -2.7196875 4.77453125 -3.734375 4.8515625 C-4.48203125 4.90054688 -5.2296875 4.94953125 -6 5 C-6.33 4.01 -6.66 3.02 -7 2 C-4.69 1.34 -2.38 0.68 0 0 Z " fill="#494A4E" transform="translate(1087,560)"/>
<path d="M0 0 C0 0.66 0 1.32 0 2 C-3.53677723 5.53677723 -8.3364724 6.59496284 -13 8 C-11.625 6.5 -11.625 6.5 -10 5 C-9.34 5 -8.68 5 -8 5 C-8 4.34 -8 3.68 -8 3 C-5.04518508 0.25624329 -4.22528092 0 0 0 Z " fill="#444445" transform="translate(1360,1299)"/>
<path d="M0 0 C2.70860665 -0.05429278 5.41610901 -0.09381211 8.125 -0.125 C8.88554688 -0.14175781 9.64609375 -0.15851562 10.4296875 -0.17578125 C15.03270731 -0.21546246 18.66464004 0.24092423 23 2 C23 2.33 23 2.66 23 3 C7.25512528 2.03644647 7.25512528 2.03644647 0 1 C0 0.67 0 0.34 0 0 Z " fill="#5A5A5E" transform="translate(1200,558)"/>
<path d="M0 0 C0.66 0.33 1.32 0.66 2 1 C0.95285076 2.32477959 -0.11344669 3.63443746 -1.1875 4.9375 C-1.77917969 5.66839844 -2.37085938 6.39929687 -2.98046875 7.15234375 C-5.32505203 9.29738803 -6.88391498 9.66094412 -10 10 C-10 9.34 -10 8.68 -10 8 C-8.68 7.67 -7.36 7.34 -6 7 C-6 6.34 -6 5.68 -6 5 C-4.04072937 3.2856382 -2.04119788 1.61594832 0 0 Z " fill="#4F4F51" transform="translate(1372,1286)"/>
<path d="M0 0 C2.97 0 5.94 0 9 0 C5.8337911 3.1662089 4.99910305 3.48067091 0.8125 4.1875 C-0.08855469 4.34605469 -0.98960938 4.50460937 -1.91796875 4.66796875 C-2.94857422 4.83232422 -2.94857422 4.83232422 -4 5 C-3.67 4.34 -3.34 3.68 -3 3 C-2.34 3 -1.68 3 -1 3 C-0.67 2.01 -0.34 1.02 0 0 Z " fill="#626367" transform="translate(1032,577)"/>
<path d="M0 0 C0.66 0.33 1.32 0.66 2 1 C-0.57784846 3.64752004 -2.91648098 5.94432065 -6 8 C-6.66 7.67 -7.32 7.34 -8 7 C-8 6.34 -8 5.68 -8 5 C-6.3203125 3.67578125 -6.3203125 3.67578125 -4.125 2.3125 C-3.40570312 1.85488281 -2.68640625 1.39726563 -1.9453125 0.92578125 C-1.30335938 0.62027344 -0.66140625 0.31476563 0 0 Z " fill="#5B5B5D" transform="translate(934,1291)"/>
<path d="M0 0 C1 2 1 2 0.25 5 C-1 8 -1 8 -4 10 C-4 5.28093812 -2.71245796 3.72962969 0 0 Z " fill="#525255" transform="translate(1035,1195)"/>
<path d="M0 0 C-1.58199631 0.64910154 -3.16565724 1.29414694 -4.75 1.9375 C-5.63171875 2.29714844 -6.5134375 2.65679688 -7.421875 3.02734375 C-9.61186104 3.85356576 -11.71898271 4.49369943 -14 5 C-14 4.34 -14 3.68 -14 3 C-13.34 3 -12.68 3 -12 3 C-12 2.34 -12 1.68 -12 1 C-10.37681021 0.63762737 -8.7513642 0.28534843 -7.125 -0.0625 C-6.22007812 -0.25972656 -5.31515625 -0.45695313 -4.3828125 -0.66015625 C-2 -1 -2 -1 0 0 Z " fill="#595A5E" transform="translate(1024,585)"/>
<path d="M0 0 C2.56616632 3.84924948 2.55097676 6.4349304 3 11 C1.35 10.67 -0.3 10.34 -2 10 C-1.34 9.01 -0.68 8.02 0 7 C0.07905064 4.66800612 0.08798769 2.33167378 0 0 Z " fill="#434448" transform="translate(932,837)"/>
<path d="M0 0 C0.33 0.66 0.66 1.32 1 2 C-0.89732848 6.11087838 -3.0054207 7.94872955 -7 10 C-5.33248852 6.05860922 -2.77289351 3.2107188 0 0 Z " fill="#58595B" transform="translate(1018,1219)"/>
<path d="M0 0 C0.1875 3.3125 0.1875 3.3125 0 7 C-0.99 7.99 -1.98 8.98 -3 10 C-3 7.03 -3 4.06 -3 1 C-1 0 -1 0 0 0 Z " fill="#333335" transform="translate(1444,1151)"/>
<path d="M0 0 C3.68754757 0.49831724 5.60490662 1.10067643 8 4 C7.67 4.66 7.34 5.32 7 6 C6.34 6 5.68 6 5 6 C4.67 4.68 4.34 3.36 4 2 C2.68 2 1.36 2 0 2 C0 1.34 0 0.68 0 0 Z " fill="#535358" transform="translate(814,704)"/>
<path d="M0 0 C1.32 0 2.64 0 4 0 C4.33 1.32 4.66 2.64 5 4 C2.69 3.67 0.38 3.34 -2 3 C-1.34 2.01 -0.68 1.02 0 0 Z " fill="#46474B" transform="translate(1271,569)"/>
<path d="M0 0 C2 1 2 1 2 1 Z M-3 1 C-2.01 1 -1.02 1 0 1 C-0.33 1.66 -0.66 2.32 -1 3 C-1.66 2.34 -2.32 1.68 -3 1 Z M-6 2 C-5.01 2.33 -4.02 2.66 -3 3 C-3.33 3.99 -3.66 4.98 -4 6 C-4.99 6 -5.98 6 -7 6 C-6.67 4.68 -6.34 3.36 -6 2 Z " fill="#161817" transform="translate(1265,1346)"/>
<path d="M0 0 C1.98 0 3.96 0 6 0 C3.82575883 2.50037734 2.26954202 3.43628586 -1 4 C-0.67 2.68 -0.34 1.36 0 0 Z " fill="#1E1F21" transform="translate(807,1339)"/>
<path d="M0 0 C-0.99 1.485 -0.99 1.485 -2 3 C-3.65 2.67 -5.3 2.34 -7 2 C-7 1.34 -7 0.68 -7 0 C-3.86650268 -1.04449911 -3.01031744 -0.93423645 0 0 Z " fill="#1E1E20" transform="translate(846,1332)"/>
<path d="M0 0 C0.66 0.33 1.32 0.66 2 1 C0.02 3.31 -1.96 5.62 -4 8 C-4.33 7.01 -4.66 6.02 -5 5 C-3.35 3.35 -1.7 1.7 0 0 Z " fill="#48494B" transform="translate(985,1254)"/>
<path d="M0 0 C1.125 3.75 1.125 3.75 0 6 C-2.0625 6.625 -2.0625 6.625 -4 7 C-2.92598892 4.08482708 -2.22189824 2.22189824 0 0 Z " fill="#616162" transform="translate(1029,1204)"/>
<path d="M0 0 C2.02350324 3.03525486 2.32124018 4.19426202 2.625 7.6875 C2.69976563 8.49574219 2.77453125 9.30398438 2.8515625 10.13671875 C2.90054688 10.75160156 2.94953125 11.36648438 3 12 C2.67 11.34 2.34 10.68 2 10 C1.34 10 0.68 10 0 10 C0 6.7 0 3.4 0 0 Z " fill="#646367" transform="translate(936,850)"/>
<path d="M0 0 C-0.33 0.99 -0.66 1.98 -1 3 C-1.99 3 -2.98 3 -4 3 C-4 2.34 -4 1.68 -4 1 C-5.32 0.67 -6.64 0.34 -8 0 C-4.94736336 -0.98120464 -3.05263664 -0.98120464 0 0 Z " fill="#414245" transform="translate(1120,681)"/>
</svg>
